<?xml version="1.0" encoding="UTF-8"?>
<svg version="1.1" xmlns="http://www.w3.org/2000/svg" width="1500" height="1500">
<path d="M0 0 C0.98257782 0.0015509 1.96515564 0.00310181 2.97750854 0.00469971 C14.6758541 0.02632436 26.37031162 0.09102127 38.0625 0.5 C39.50979492 0.54616455 39.50979492 0.54616455 40.98632812 0.59326172 C46.85019724 0.84543739 52.48513471 1.65281132 58.26147461 2.67919922 C61.59508808 3.22187357 64.87607153 3.39799751 68.25 3.5 C74.28385318 3.84916714 79.85713791 4.90175571 85.66479492 6.47216797 C91.09204064 7.93518166 96.54280365 9.06768102 102.0625 10.125 C114.38210504 12.52970671 126.27665344 15.78844639 138.1574707 19.84106445 C143.33938543 21.6019738 148.54945601 23.18828297 153.8125 24.6875 C162.83399231 27.27500349 171.47628338 30.59774962 180.09375 34.3125 C182.14802262 35.18809161 184.21139551 36.03905615 186.27734375 36.88671875 C200.14917605 42.60179484 213.43175234 49.13811682 226.62670898 56.26342773 C230.47812701 58.3387635 234.37107515 60.28977692 238.3125 62.1875 C243.05832051 64.52556111 247.1856503 67.29968555 251.44921875 70.4140625 C254.14978749 72.22547001 256.87594649 73.60677278 259.8125 75 C266.73783333 78.33376123 272.78577197 82.65827872 279 87.125 C280.72819301 88.31391653 282.45728357 89.50153005 284.1875 90.6875 C289.30874315 94.27816159 294.15109591 98.1782176 299 102.125 C300.76957248 103.5432413 302.54038673 104.95993474 304.3125 106.375 C305.875 107.625 307.4375 108.875 309 110.125 C309.92167969 110.82109375 310.84335938 111.5171875 311.79296875 112.234375 C312.52128906 112.85828125 313.24960938 113.4821875 314 114.125 C314 114.785 314 115.445 314 116.125 C314.721875 116.3725 315.44375 116.62 316.1875 116.875 C319.850517 118.50300755 322.62268033 120.73716108 325.43847656 123.57446289 C327.01619592 125.14108197 328.66139443 126.56118387 330.359375 127.99609375 C335.98035422 132.89066554 341.22468913 138.16364824 346.4921875 143.43188477 C348.2550273 145.19252101 350.02574588 146.94497309 351.796875 148.69726562 C352.93278054 149.83023924 354.06821392 150.96368648 355.203125 152.09765625 C355.72610168 152.61344742 356.24907837 153.12923859 356.78790283 153.66065979 C360.00948986 156.90229397 362.54622021 160.24229703 365 164.125 C365.95237308 165.31363955 366.92820332 166.48429904 367.9375 167.625 C369.8685075 169.82839143 371.76910296 172.04545038 373.625 174.3125 C375.84904448 177.04167334 375.84904448 177.04167334 377.9375 179 C380.97106176 182.12548788 383.43529838 185.6098189 386 189.125 C387.74886092 191.52166725 389.49920284 193.91724693 391.25 196.3125 C391.95829956 197.28437256 391.95829956 197.28437256 392.6809082 198.27587891 C395.38456003 201.97186008 398.14567873 205.60877059 400.98242188 209.20336914 C405.28775239 214.6687839 409.00780053 220.26685071 412.4140625 226.34375 C414.32564358 229.69607939 416.44375269 232.86840767 418.60546875 236.0625 C422.95227741 242.49139348 426.65760946 249.16002691 430.30078125 256.01171875 C431.68794934 258.55326581 433.12609787 261.00171268 434.6875 263.4375 C438.30043112 269.08270488 440.92066538 274.75703772 443 281.125 C443.94656492 283.32938767 444.93697469 285.51134432 445.9296875 287.6953125 C447.02811902 290.18883223 448.01884869 292.7082773 449 295.25 C450.16807633 298.22286878 451.40492919 300.95849559 453.0625 303.6875 C454.92084887 306.98457057 456.03833549 309.97007032 457.15625 313.5546875 C458.13765985 316.54435268 459.28107065 319.44866964 460.4375 322.375 C462.61652085 327.96038176 464.43347328 333.5917229 466.10546875 339.34765625 C466.89733685 342.05253325 466.89733685 342.05253325 468.02734375 344.16015625 C469.21644819 346.56224273 469.76718531 348.88997222 470.375 351.5 C472.29051933 363.13780006 472.29051933 363.13780006 477 373.125 C477.49947781 375.68557601 477.95183156 378.23912596 478.375 380.8125 C479.30839628 386.32734042 480.33083637 391.791917 481.5625 397.25 C482.85398437 403.14532502 483.73397154 409.01936809 484.46875 415.0078125 C484.82597172 417.88930804 485.25109407 420.75157705 485.71875 423.6171875 C494.67076899 479.34872352 492.4708413 539.97380275 481 595.125 C480.8335498 595.9284082 480.66709961 596.73181641 480.49560547 597.55957031 C480.00641842 599.89600034 479.50641786 602.22974808 479 604.5625 C478.85828369 605.22290283 478.71656738 605.88330566 478.57055664 606.5637207 C475.82984851 618.83458435 471.89208781 630.77486718 467.90087891 642.68310547 C467.12865292 644.98909182 466.36285052 647.29714087 465.59765625 649.60546875 C452.15686061 689.96813939 452.15686061 689.96813939 447 695.125 C446.40850765 696.62715632 445.87637663 698.15291267 445.375 699.6875 C440.13411541 714.50121805 432.48407064 728.32886268 424.4140625 741.765625 C423.47618766 743.33047695 422.56040391 744.90879595 421.66796875 746.5 C417.72217272 753.49623992 413.38836975 760.1914027 408.9375 766.875 C408.34799561 767.761875 407.75849121 768.64875 407.15112305 769.5625 C403.58932019 774.87710966 399.88950209 780.0461801 396 785.125 C395.19452425 786.18950818 394.38978353 787.25457313 393.5859375 788.3203125 C392.10758482 790.27926039 390.62841308 792.23759042 389.1484375 794.1953125 C387.73225658 796.1264683 386.363081 798.09311688 385.046875 800.09375 C382.82001069 803.39154905 380.41764645 806.4442973 377.875 809.5 C377.21177734 810.31791016 377.21177734 810.31791016 376.53515625 811.15234375 C375.40338842 812.51661977 374.20633588 813.82619238 373 815.125 C372.34 815.125 371.68 815.125 371 815.125 C370.814375 815.805625 370.62875 816.48625 370.4375 817.1875 C368.75828273 820.61894399 366.67736529 822.55157617 363.9375 825.16015625 C361.23200133 827.90383736 358.97330519 830.92459231 356.67578125 834.01171875 C354.91196847 836.23601412 353.10820875 838.22288905 351 840.125 C350.34 840.125 349.68 840.125 349 840.125 C348.731875 840.764375 348.46375 841.40375 348.1875 842.0625 C347 844.125 347 844.125 344 845.125 C343.71125 845.7025 343.4225 846.28 343.125 846.875 C341.60387378 849.91725245 339.51286104 851.86342507 337 854.125 C336.34 854.125 335.68 854.125 335 854.125 C334.76410156 854.70894531 334.52820312 855.29289062 334.28515625 855.89453125 C332.71257456 858.62384476 330.95785439 859.9311087 328.4375 861.8125 C323.97713092 865.25593067 320.06474492 868.94943096 316.203125 873.046875 C313.65602944 875.4494545 310.93437608 877.21765555 308 879.125 C305.90037571 880.69172472 303.81852334 882.26869372 301.75 883.875 C301.1828125 884.31255615 300.615625 884.7501123 300.03125 885.20092773 C296.64924217 887.8178896 293.31437439 890.48509343 290 893.1875 C285.13668736 897.11004069 280.04444798 900.63088782 274.8828125 904.14453125 C273.16885984 905.32200279 271.47036719 906.52340471 269.80859375 907.7734375 C266.31172138 910.38665098 262.39946448 912.37488704 258.55859375 914.43359375 C253.36998614 917.22048779 248.3115543 920.13355595 243.3125 923.25 C239.26739202 925.76865214 235.25789765 928.09408724 230.953125 930.12890625 C228.56405759 931.34733063 226.33406207 932.76254772 224.0625 934.1875 C221.03237838 936.03491152 218.27643576 937.49576659 214.875 938.5 C210.37071986 939.83932578 206.35512803 941.86600295 202.1875 944 C185.44882155 952.53769356 167.65079398 958.79066299 149.8125 964.625 C149.0908667 964.86178467 148.3692334 965.09856934 147.62573242 965.3425293 C134.92683471 969.47721585 122.25378862 972.47189978 109.125 974.90625 C105.22686078 975.63374614 101.49570818 976.52056324 97.71484375 977.71484375 C93.33220919 979.09785562 89.12924276 979.77471164 84.5625 980.1875 C79.95159182 980.63314759 75.45147424 981.21179655 70.90625 982.12109375 C63.95862014 983.4244886 56.98618682 983.74907004 49.9375 984.125 C41.62873711 984.57751961 33.41502799 985.16245762 25.15625 986.171875 C15.94505054 987.26768904 6.82993526 987.43574601 -2.4375 987.375 C-3.24327484 987.3728952 -4.04904968 987.37079041 -4.87924194 987.36862183 C-15.36519742 987.33655945 -25.68739939 987.01641966 -36.09375 985.62890625 C-40.00556857 985.12428165 -43.87494757 984.84156538 -47.8125 984.625 C-62.22452442 983.78658735 -76.49004915 982.67534381 -90.6484375 979.77734375 C-93.43273148 979.2354124 -96.11596574 978.86255185 -98.9375 978.625 C-102.71134259 978.27344432 -106.02123808 977.26134216 -109.56640625 975.94140625 C-112.99161312 974.79234006 -116.49043639 973.96976451 -120 973.125 C-129.03023262 970.93464589 -138.00077345 968.60929702 -146.9375 966.0625 C-148.23240356 965.69463379 -148.23240356 965.69463379 -149.5534668 965.31933594 C-159.51913845 962.45309021 -169.12276127 958.98043129 -178.75 955.125 C-179.85988281 954.68671875 -180.96976563 954.2484375 -182.11328125 953.796875 C-183.72009766 953.15492188 -183.72009766 953.15492188 -185.359375 952.5 C-186.32327148 952.11585938 -187.28716797 951.73171875 -188.28027344 951.3359375 C-191.00631895 950.12218654 -193.45749981 948.68059458 -196 947.125 C-197.90279021 946.38019355 -199.82119557 945.67458186 -201.75 945 C-208.71146359 942.38650803 -215.10603822 939.01109996 -221.6328125 935.46875 C-226.56892732 932.79363708 -231.59435487 930.30918313 -236.64770508 927.86401367 C-240.66078194 925.89453116 -244.29909535 923.62285576 -248 921.125 C-249.54653829 920.32262253 -251.10879904 919.54958449 -252.6875 918.8125 C-258.41557739 915.99960485 -263.6815228 912.64117994 -269 909.125 C-269.88510254 908.54177979 -269.88510254 908.54177979 -270.78808594 907.94677734 C-277.90703682 903.25165099 -284.97449888 898.49480342 -291.9375 893.5703125 C-293.62326667 892.38899874 -295.3390012 891.25055024 -297.0625 890.125 C-300.30641899 887.9163743 -303.36621973 885.53660429 -306.4453125 883.10546875 C-309.25534108 880.9270521 -312.12695673 878.84447047 -315 876.75 C-319.61436638 873.31115662 -323.66820947 869.68233883 -327.57421875 865.4609375 C-329.62869152 863.48255632 -331.63586563 861.88279495 -333.91796875 860.19140625 C-340.05857712 855.48425817 -345.39809228 849.98998318 -350.83007812 844.50073242 C-352.62317363 842.689345 -354.42417766 840.88612419 -356.2265625 839.08398438 C-362.02859166 833.26396963 -367.67589164 827.39038196 -373 821.125 C-374.51712091 819.45495331 -376.03738048 817.7877454 -377.5625 816.125 C-380.79560059 812.54667002 -383.76882347 808.89456624 -386.59765625 804.9921875 C-388.02371902 803.09341869 -389.54560335 801.33489025 -391.125 799.5625 C-393.4506782 796.9011569 -395.13730963 794.18380824 -396.81640625 791.0625 C-398.296101 788.64029341 -400.02072061 786.51353419 -401.8125 784.3125 C-408.64497882 775.91005822 -414.39063496 767.01901821 -419.91723633 757.72070312 C-422.13501522 754.02318976 -424.41440229 750.52127778 -427.07421875 747.125 C-430.15919504 743.10293542 -432.22104185 738.87602459 -434.25 734.25 C-434.9179825 732.75086369 -435.58969195 731.25338089 -436.265625 729.7578125 C-436.55211914 729.10699707 -436.83861328 728.45618164 -437.13378906 727.78564453 C-437.99728066 725.92777103 -437.99728066 725.92777103 -440 724.125 C-440.752169 722.42131666 -441.50027384 720.71546515 -442.20996094 718.99365234 C-443.37584818 716.23601916 -444.75609256 713.59926446 -446.125 710.9375 C-452.70349659 697.91363883 -458.53287471 684.57542551 -463.875 671 C-464.42873291 669.59729858 -464.42873291 669.59729858 -464.99365234 668.16625977 C-467.01609581 662.95006814 -468.79124975 657.72084004 -470.35205078 652.34863281 C-471.16410697 649.56181754 -472.07170937 646.812561 -473 644.0625 C-473.33773438 643.05574219 -473.67546875 642.04898438 -474.0234375 641.01171875 C-474.62909526 639.22139442 -475.23787137 637.43211781 -475.8515625 635.64453125 C-477.48825022 630.84192738 -478.80678779 626.05694378 -480 621.125 C-480.31839844 620.05507813 -480.63679688 618.98515625 -480.96484375 617.8828125 C-482.22203776 613.31896103 -483.04332404 608.74461375 -483.85546875 604.0859375 C-484.43255677 600.87161926 -485.09244532 597.8046914 -486 594.66015625 C-487.13442407 590.64978991 -487.8471708 586.6734156 -488.5 582.5625 C-488.62818115 581.76658447 -488.7563623 580.97066895 -488.88842773 580.15063477 C-489.14523795 578.54480516 -489.39975969 576.93860771 -489.65185547 575.33203125 C-489.94724731 573.459421 -490.25543995 571.58883702 -490.56640625 569.71875 C-491.92810665 561.05533329 -492.60173973 552.3657602 -493.21508789 543.62084961 C-493.61565007 538.119825 -494.20237547 532.72809649 -495.05078125 527.27734375 C-496.33999499 517.92066855 -496.26444811 508.5948108 -496.20581055 499.1640625 C-496.18753086 496.13012243 -496.18530188 493.09648957 -496.18554688 490.0625 C-496.13941576 464.30438384 -496.13941576 464.30438384 -494.0625 452.3125 C-492.71456983 444.34473502 -492.28662733 436.29603701 -491.78540039 428.23706055 C-491.42097103 422.84885475 -490.9417568 418.20457671 -489 413.125 C-488.48325174 410.61160138 -488.00670981 408.08972754 -487.5625 405.5625 C-486.45779521 399.43167025 -485.1817588 393.37111825 -483.7421875 387.30859375 C-482.98687973 384.06872093 -482.30151842 380.81967017 -481.625 377.5625 C-481.08648674 375.08264645 -480.5446188 372.60351982 -480 370.125 C-479.86464844 369.47934082 -479.72929687 368.83368164 -479.58984375 368.16845703 C-473.01373551 337.23556953 -461.10435222 306.60612534 -446.71875 278.5234375 C-444.95444942 275.03493408 -443.34396504 271.50901704 -441.78515625 267.92578125 C-439.44114229 262.54970942 -436.50917073 257.62920603 -433.46875 252.62890625 C-432.22627475 250.5107503 -431.11752161 248.40213587 -430.0625 246.1875 C-427.94218214 241.80491832 -425.29929444 237.79439354 -422.65234375 233.71484375 C-421.37304631 231.70970379 -420.19036845 229.71531619 -419.0625 227.625 C-416.8716183 223.72504876 -414.19595862 220.20947026 -411.5390625 216.6171875 C-408.90709809 213.0308931 -406.37947099 209.37408477 -403.84399414 205.71923828 C-398.46755872 197.9731281 -393.05282522 190.36290468 -387 183.125 C-385.91138672 181.77921875 -385.91138672 181.77921875 -384.80078125 180.40625 C-372.15883838 164.78089447 -372.15883838 164.78089447 -366.375 160.0625 C-363.95390994 158.07374745 -362.17057733 156.12761047 -360.375 153.5625 C-357.41496454 149.4312852 -353.99914929 145.8588399 -350.4375 142.25 C-349.88304199 141.67822021 -349.32858398 141.10644043 -348.75732422 140.51733398 C-345.613026 137.37631987 -343.171974 135.75272975 -339 134.125 C-337.95282727 132.292037 -337.95282727 132.292037 -337 130.125 C-331.86940201 124.40706082 -326.36082882 119.09449407 -320.08984375 114.64453125 C-317.4944704 112.75742801 -315.03737809 110.72987512 -312.5625 108.6875 C-302.75503393 100.62268286 -292.77559453 93.00672684 -281.93359375 86.375 C-279.85275132 85.02980893 -277.90260244 83.57121589 -275.9375 82.0625 C-273.0594719 79.86493591 -270.14920863 77.98630222 -266.96484375 76.24609375 C-264.49771112 74.83840575 -262.13345008 73.29501657 -259.75 71.75 C-255.158585 68.80420843 -250.47478192 66.15000683 -245.6640625 63.58203125 C-243.1585745 62.2117277 -240.73864452 60.7551833 -238.3125 59.25 C-232.0305405 55.43273275 -225.4294108 52.26489548 -218.83447266 49.03271484 C-216.43538792 47.84562447 -214.06388195 46.60677693 -211.6875 45.375 C-207.64761334 43.35838442 -203.54956958 41.80894092 -199.2890625 40.32421875 C-196.85586749 39.4370562 -194.47555028 38.51167283 -192.0859375 37.51953125 C-180.86231252 32.86878958 -169.48405768 28.765063 -158 24.8125 C-157.24855713 24.55210937 -156.49711426 24.29171875 -155.72290039 24.0234375 C-147.59057944 21.21116889 -139.52814526 18.58778775 -131.125 16.67895508 C-129.03072323 16.32434616 -129.03072323 16.32434616 -128 15.125 C-126.66779597 14.81765458 -125.32370603 14.56143401 -123.9765625 14.328125 C-123.12892334 14.17641846 -122.28128418 14.02471191 -121.40795898 13.8684082 C-120.48958252 13.7055835 -119.57120605 13.54275879 -118.625 13.375 C-108.25659108 11.47806768 -98.15501977 8.92674392 -88 6.125 C-85.25196787 5.37836614 -82.62802327 4.91993097 -79.79248047 4.66015625 C-78.96996796 4.58337646 -78.14745544 4.50659668 -77.30001831 4.42749023 C-76.41468414 4.34829346 -75.52934998 4.26909668 -74.6171875 4.1875 C-73.22477341 4.06000366 -73.22477341 4.06000366 -71.80422974 3.92993164 C-69.83235528 3.75023718 -67.86033493 3.57213755 -65.88818359 3.39550781 C-62.9341251 3.13030794 -59.98072834 2.85852712 -57.02734375 2.5859375 C-37.97825053 0.84736005 -19.12953887 -0.05368987 0 0 Z " fill="#FEA400" transform="translate(752,255.875)"/>
<path d="M0 0 C26.09436073 22.87779854 44.40151499 57.3771268 46.69702148 92.25683594 C48.00801126 133.57739757 37.35906454 171.92824864 8.63989258 202.5871582 C-13.22479457 225.36080527 -42.80947545 242.20738887 -74.52734375 245.84765625 C-76.50734375 245.84765625 -78.48734375 245.84765625 -80.52734375 245.84765625 C-80.19734375 259.70765625 -79.86734375 273.56765625 -79.52734375 287.84765625 C-75.56734375 283.55765625 -71.60734375 279.26765625 -67.52734375 274.84765625 C-51.11975295 257.12745819 -29.36583763 244.17176229 -6.08984375 237.78515625 C-5.20619141 237.52927734 -4.32253906 237.27339844 -3.41210938 237.00976562 C11.15076012 232.99491358 25.71538568 232.49728133 40.72167969 232.53198242 C43.62862089 232.53519042 46.53458651 232.51141211 49.44140625 232.48632812 C51.30859248 232.4840589 53.17578142 232.48334988 55.04296875 232.484375 C55.90238068 232.47516525 56.7617926 232.46595551 57.64724731 232.45646667 C63.83678486 232.50413423 67.9552254 233.75747656 72.8203125 237.796875 C75.42205398 242.60056317 75.02190368 247.28713304 74.91015625 252.66015625 C74.88489868 254.35192993 74.88489868 254.35192993 74.85913086 256.07788086 C73.99125468 292.26702205 55.66724985 325.88084964 30.390625 351.02929688 C17.92485818 362.84765625 17.92485818 362.84765625 13.47265625 362.84765625 C14.11203125 363.61078125 14.75140625 364.37390625 15.41015625 365.16015625 C18.73370014 369.49083466 18.61201894 373.20900178 18.58618164 378.44018555 C18.58632767 379.2111557 18.58647369 379.98212585 18.58662415 380.77645874 C18.58592744 383.32495944 18.57814635 385.87338707 18.5703125 388.421875 C18.56844746 390.18878642 18.56702396 391.95569835 18.56602478 393.72261047 C18.56220637 398.37343778 18.55238183 403.02423386 18.5413208 407.67504883 C18.53109216 412.42073138 18.52652404 417.16641898 18.52148438 421.91210938 C18.51075898 431.22397205 18.49369064 440.53581155 18.47265625 449.84765625 C19.41441208 449.996548 20.35616791 450.14543976 21.32646179 450.29884338 C54.72327344 456.12448454 86.88585172 486.3069581 105.7109375 512.8046875 C140.3281108 562.75873673 154.09772845 633.61394086 143.375 693.51953125 C136.57603386 727.2728486 113.71527211 754.33131271 85.66503906 773.05419922 C59.30930606 790.31351366 28.14828276 799.94737259 -2.52734375 805.84765625 C-3.75300049 806.09443115 -4.97865723 806.34120605 -6.24145508 806.59545898 C-16.34736809 808.60329507 -26.46156843 810.02794405 -36.71484375 811.03515625 C-37.5924234 811.12137238 -38.47000305 811.2075885 -39.37417603 811.29641724 C-57.72005627 813.01931467 -76.05939733 813.26049126 -94.47058487 813.28155899 C-96.67218164 813.28508787 -98.87370909 813.29372438 -101.07528687 813.30331421 C-127.11846193 813.39446239 -153.29763229 812.1410376 -178.94970703 807.32958984 C-180.83147126 806.9777616 -182.71563359 806.6386909 -184.60107422 806.30712891 C-233.41357277 797.64558833 -284.59083539 778.43499385 -314.35888672 736.55078125 C-328.00541451 716.6598122 -335.65470638 693.49390162 -335.6953125 669.359375 C-335.69954727 668.58275513 -335.70378204 667.80613525 -335.70814514 667.00598145 C-335.71795315 664.51565009 -335.71807878 662.02550335 -335.71484375 659.53515625 C-335.71393738 658.25519272 -335.71393738 658.25519272 -335.7130127 656.94937134 C-335.68896888 644.465792 -335.36571963 632.21289322 -333.52734375 619.84765625 C-333.39312012 618.88682129 -333.25889648 617.92598633 -333.12060547 616.93603516 C-328.29575612 582.67052147 -318.92198405 550.32701464 -300.52734375 520.84765625 C-299.85703125 519.76484375 -299.18671875 518.68203125 -298.49609375 517.56640625 C-282.00341132 491.88108116 -259.28252988 473.01666451 -232.52734375 458.84765625 C-231.62628906 458.35652344 -230.72523438 457.86539062 -229.796875 457.359375 C-225.07134036 454.8694114 -220.2611781 452.98256637 -215.22265625 451.20703125 C-214.25404663 450.86454346 -214.25404663 450.86454346 -213.26586914 450.51513672 C-211.68709264 449.9572342 -210.10731886 449.4021552 -208.52734375 448.84765625 C-208.52369812 447.85873383 -208.52005249 446.8698114 -208.51629639 445.85092163 C-208.47932452 436.5225593 -208.42152792 427.19452643 -208.34344101 417.86641502 C-208.30396391 413.07092309 -208.27177657 408.27561485 -208.25634766 403.47998047 C-208.2411826 398.85023708 -208.20673979 394.22099869 -208.15903473 389.59148026 C-208.14421937 387.82693501 -208.13630264 386.06231766 -208.1354599 384.29771042 C-208.1330889 381.8221148 -208.10600034 379.34791326 -208.07324219 376.87255859 C-208.08078773 375.78282745 -208.08078773 375.78282745 -208.08848572 374.67108154 C-207.98149559 369.43123737 -206.66757559 366.83858488 -203.52734375 362.84765625 C-204.09839844 362.58339844 -204.66945313 362.31914063 -205.2578125 362.046875 C-226.3085517 350.9236789 -242.06617717 327.63655192 -251.71630859 306.60351562 C-252.44688341 305.02184973 -253.21349851 303.45695117 -253.984375 301.89453125 C-262.11838568 285.08588077 -268.04071151 260.59350929 -264.52734375 241.84765625 C-262.79029605 238.28338624 -260.91278713 235.92571296 -257.52734375 233.84765625 C-253.3291767 232.58754319 -249.14181511 232.64941786 -244.79296875 232.609375 C-243.93070175 232.59967178 -243.06843475 232.58996857 -242.18003845 232.57997131 C-239.37909321 232.55496161 -236.57838965 232.54243115 -233.77734375 232.53515625 C-232.82727448 232.53253784 -231.8772052 232.52991943 -230.89834595 232.52722168 C-216.0742874 232.52283164 -201.98276805 233.27920238 -187.52734375 236.84765625 C-186.30917969 237.13640625 -185.09101562 237.42515625 -183.8359375 237.72265625 C-164.26995997 243.10029915 -145.80242373 253.60231432 -130.52734375 266.84765625 C-129.69847656 267.55535156 -128.86960937 268.26304687 -128.015625 268.9921875 C-121.21534841 274.9385243 -114.55811651 281.30149711 -109.52734375 288.84765625 C-109.19734375 274.65765625 -108.86734375 260.46765625 -108.52734375 245.84765625 C-112.81734375 245.51765625 -117.10734375 245.18765625 -121.52734375 244.84765625 C-124.38643758 244.35945722 -127.10360326 243.85371147 -129.90234375 243.16015625 C-130.61438965 242.98645508 -131.32643555 242.81275391 -132.06005859 242.63378906 C-167.28323271 233.61903126 -198.27319144 209.1533852 -216.6640625 178.12109375 C-217.58638672 176.50074219 -217.58638672 176.50074219 -218.52734375 174.84765625 C-219.11128906 173.82929687 -219.69523438 172.8109375 -220.296875 171.76171875 C-224.29160852 164.31329914 -227.14266214 156.65668674 -229.83984375 148.66015625 C-230.34644531 147.16391724 -230.34644531 147.16391724 -230.86328125 145.63745117 C-234.38420737 134.84392385 -235.99986663 124.17001401 -236.52734375 112.84765625 C-236.59308594 111.54441406 -236.65882813 110.24117187 -236.7265625 108.8984375 C-237.99652158 71.32591532 -223.52905658 35.45399753 -198.06640625 8.09765625 C-144.24584392 -48.39700949 -58.51543235 -49.83308072 0 0 Z " fill="#02203E" transform="translate(848.52734375,358.15234375)"/>
<path d="M0 0 C1.916354 -0.01226418 3.83270069 -0.02571856 5.7490387 -0.04026794 C10.9399081 -0.07522381 16.13065039 -0.09056422 21.32162261 -0.10010505 C24.57472959 -0.10669989 27.82780349 -0.11705237 31.08089638 -0.12861061 C42.459542 -0.16832782 53.8380868 -0.19035802 65.21679688 -0.19824219 C75.77270422 -0.20608995 86.32788014 -0.25521348 96.88355464 -0.32330769 C105.98211599 -0.3799221 115.08043652 -0.4051646 124.17917234 -0.40718967 C129.59704851 -0.40901754 135.0141541 -0.42324474 140.43184471 -0.47000694 C183.5859321 -0.82035596 183.5859321 -0.82035596 201.15161133 8.4675293 C202.58952668 9.16349594 204.0296523 9.85491696 205.47209167 10.54145813 C219.36548008 17.20098464 231.12121864 26.85119039 242.15161133 37.4675293 C242.78325195 38.03600586 243.41489258 38.60448242 244.06567383 39.19018555 C254.27067172 48.6455272 261.6671796 61.30204676 268.15161133 73.4675293 C268.67239258 74.4162793 269.19317383 75.3650293 269.72973633 76.3425293 C280.86597484 97.44277068 286.72409932 121.30211733 289.71411133 144.8425293 C289.83979492 145.79385742 289.96547852 146.74518555 290.0949707 147.7253418 C291.63474837 159.65660328 292.36082118 171.4765621 292.3918457 183.50244141 C292.40155361 185.76656837 292.43269873 188.02978539 292.46411133 190.29370117 C292.55905127 203.19684681 290.90626766 215.46699161 286.02661133 227.5300293 C285.72513184 228.281875 285.42365234 229.0337207 285.11303711 229.80834961 C274.33977614 255.62259302 253.33958028 271.9237912 229.15161133 284.4675293 C228.5415625 284.79350098 227.93151367 285.11947266 227.30297852 285.45532227 C201.89804387 298.95034286 171.63070912 304.36046935 143.40161133 308.2800293 C142.64406555 308.38544037 141.88651978 308.49085144 141.10601807 308.59945679 C126.6147354 310.58929456 112.25523611 311.62111221 97.62036133 311.6706543 C96.62011177 311.67489536 96.62011177 311.67489536 95.59965515 311.67922211 C92.05723707 311.69407908 88.51485815 311.70338833 84.97241211 311.70776367 C82.1203909 311.7121055 79.26867952 311.72584837 76.41674805 311.7487793 C14.21430178 312.23832314 -59.52405379 304.26222789 -106.03588867 258.5925293 C-125.12560821 239.30189691 -133.25794248 214.07650826 -133.22338867 187.2800293 C-133.22350952 186.62222473 -133.22363037 185.96442017 -133.22375488 185.28668213 C-133.18235689 169.17179272 -131.22601848 153.38384064 -128.84838867 137.4675293 C-128.70949219 136.4760791 -128.5705957 135.48462891 -128.42749023 134.46313477 C-125.30015818 112.56783158 -117.9686809 89.61858912 -106.84838867 70.4675293 C-106.45071289 69.75773926 -106.05303711 69.04794922 -105.64331055 68.31665039 C-88.50589764 37.84214401 -61.40549801 14.09718012 -27.84838867 3.4675293 C-26.68244675 2.96009689 -25.51650482 2.45266449 -24.31523132 1.92985535 C-16.54670489 -0.63618815 -8.09193551 0.00660833 0 0 Z " fill="#FEA400" transform="translate(673.848388671875,831.532470703125)"/>
<path d="M0 0 C1.46566406 0.64195312 1.46566406 0.64195312 2.9609375 1.296875 C23.29104669 10.79493126 39.84938802 26.63288631 51 46 C51.55059082 46.94480225 51.55059082 46.94480225 52.11230469 47.90869141 C58.13274072 58.4484681 61.37593897 69.19874157 64 81 C64.36931641 82.51013672 64.36931641 82.51013672 64.74609375 84.05078125 C70.43426446 109.90253641 63.7577952 139.84188751 50 162 C45.01760839 169.61664619 39.24308503 176.39356082 33 183 C32.34128906 183.7115625 31.68257812 184.423125 31.00390625 185.15625 C16.73975714 200.08051064 -3.03695232 209.6128509 -23 214 C-23.80993408 214.18022705 -24.61986816 214.3604541 -25.4543457 214.54614258 C-53.45888541 220.24667643 -83.50884796 214.90604629 -107.4921875 199.39453125 C-124.60111023 187.89189532 -139.00489593 173.79532547 -148 155 C-148.43828125 154.09636719 -148.8765625 153.19273437 -149.328125 152.26171875 C-150.61109724 149.52960618 -151.82163585 146.77871005 -153 144 C-153.3609375 143.16210938 -153.721875 142.32421875 -154.09375 141.4609375 C-162.23596939 121.04370555 -163.27937398 94.97694802 -157 74 C-156.63455078 72.38158203 -156.63455078 72.38158203 -156.26171875 70.73046875 C-152.57604767 55.44628775 -144.56759135 41.54190829 -134 30 C-133.29359375 29.1646875 -132.5871875 28.329375 -131.859375 27.46875 C-117.8269007 11.11435549 -100.32886041 0.59576194 -80 -6 C-79.30632324 -6.2259082 -78.61264648 -6.45181641 -77.89794922 -6.68457031 C-52.35467765 -14.57480509 -24.08358632 -10.77594428 0 0 Z " fill="#FCA300" transform="translate(801,360)"/>
<path d="M0 0 C0.98257782 0.0015509 1.96515564 0.00310181 2.97750854 0.00469971 C14.6758541 0.02632436 26.37031162 0.09102127 38.0625 0.5 C39.50979492 0.54616455 39.50979492 0.54616455 40.98632812 0.59326172 C46.85019724 0.84543739 52.48513471 1.65281132 58.26147461 2.67919922 C61.59508808 3.22187357 64.87607153 3.39799751 68.25 3.5 C74.28385318 3.84916714 79.85713791 4.90175571 85.66479492 6.47216797 C91.09204064 7.93518166 96.54280365 9.06768102 102.0625 10.125 C114.38210504 12.52970671 126.27665344 15.78844639 138.1574707 19.84106445 C143.33938543 21.6019738 148.54945601 23.18828297 153.8125 24.6875 C162.83399231 27.27500349 171.47628338 30.59774962 180.09375 34.3125 C182.14802262 35.18809161 184.21139551 36.03905615 186.27734375 36.88671875 C200.14917605 42.60179484 213.43175234 49.13811682 226.62670898 56.26342773 C230.47812701 58.3387635 234.37107515 60.28977692 238.3125 62.1875 C243.05832051 64.52556111 247.1856503 67.29968555 251.44921875 70.4140625 C254.14978749 72.22547001 256.87594649 73.60677278 259.8125 75 C266.73783333 78.33376123 272.78577197 82.65827872 279 87.125 C280.72819301 88.31391653 282.45728357 89.50153005 284.1875 90.6875 C289.30874315 94.27816159 294.15109591 98.1782176 299 102.125 C300.76957248 103.5432413 302.54038673 104.95993474 304.3125 106.375 C305.875 107.625 307.4375 108.875 309 110.125 C309.92167969 110.82109375 310.84335938 111.5171875 311.79296875 112.234375 C312.52128906 112.85828125 313.24960938 113.4821875 314 114.125 C314 114.785 314 115.445 314 116.125 C314.721875 116.3725 315.44375 116.62 316.1875 116.875 C319.850517 118.50300755 322.62268033 120.73716108 325.43847656 123.57446289 C327.01619592 125.14108197 328.66139443 126.56118387 330.359375 127.99609375 C335.98035422 132.89066554 341.22468913 138.16364824 346.4921875 143.43188477 C348.2550273 145.19252101 350.02574588 146.94497309 351.796875 148.69726562 C352.93278054 149.83023924 354.06821392 150.96368648 355.203125 152.09765625 C355.72610168 152.61344742 356.24907837 153.12923859 356.78790283 153.66065979 C360.00948986 156.90229397 362.54622021 160.24229703 365 164.125 C365.95237308 165.31363955 366.92820332 166.48429904 367.9375 167.625 C369.8685075 169.82839143 371.76910296 172.04545038 373.625 174.3125 C375.84904448 177.04167334 375.84904448 177.04167334 377.9375 179 C380.97106176 182.12548788 383.43529838 185.6098189 386 189.125 C387.74886092 191.52166725 389.49920284 193.91724693 391.25 196.3125 C391.95829956 197.28437256 391.95829956 197.28437256 392.6809082 198.27587891 C395.38456003 201.97186008 398.14567873 205.60877059 400.98242188 209.20336914 C405.28775239 214.6687839 409.00780053 220.26685071 412.4140625 226.34375 C414.32564358 229.69607939 416.44375269 232.86840767 418.60546875 236.0625 C422.95227741 242.49139348 426.65760946 249.16002691 430.30078125 256.01171875 C431.68794934 258.55326581 433.12609787 261.00171268 434.6875 263.4375 C438.30043112 269.08270488 440.92066538 274.75703772 443 281.125 C443.94656492 283.32938767 444.93697469 285.51134432 445.9296875 287.6953125 C447.02811902 290.18883223 448.01884869 292.7082773 449 295.25 C450.16807633 298.22286878 451.40492919 300.95849559 453.0625 303.6875 C454.92084887 306.98457057 456.03833549 309.97007032 457.15625 313.5546875 C458.13765985 316.54435268 459.28107065 319.44866964 460.4375 322.375 C462.61652085 327.96038176 464.43347328 333.5917229 466.10546875 339.34765625 C466.89733685 342.05253325 466.89733685 342.05253325 468.02734375 344.16015625 C469.21644819 346.56224273 469.76718531 348.88997222 470.375 351.5 C472.29051933 363.13780006 472.29051933 363.13780006 477 373.125 C477.49947781 375.68557601 477.95183156 378.23912596 478.375 380.8125 C479.30839628 386.32734042 480.33083637 391.791917 481.5625 397.25 C482.85398437 403.14532502 483.73397154 409.01936809 484.46875 415.0078125 C484.82597172 417.88930804 485.25109407 420.75157705 485.71875 423.6171875 C494.67076899 479.34872352 492.4708413 539.97380275 481 595.125 C480.8335498 595.9284082 480.66709961 596.73181641 480.49560547 597.55957031 C480.00641842 599.89600034 479.50641786 602.22974808 479 604.5625 C478.85828369 605.22290283 478.71656738 605.88330566 478.57055664 606.5637207 C475.82984851 618.83458435 471.89208781 630.77486718 467.90087891 642.68310547 C467.12865292 644.98909182 466.36285052 647.29714087 465.59765625 649.60546875 C452.15686061 689.96813939 452.15686061 689.96813939 447 695.125 C446.40850765 696.62715632 445.87637663 698.15291267 445.375 699.6875 C440.13411541 714.50121805 432.48407064 728.32886268 424.4140625 741.765625 C423.47618766 743.33047695 422.56040391 744.90879595 421.66796875 746.5 C417.72217272 753.49623992 413.38836975 760.1914027 408.9375 766.875 C408.34799561 767.761875 407.75849121 768.64875 407.15112305 769.5625 C403.58932019 774.87710966 399.88950209 780.0461801 396 785.125 C395.19452425 786.18950818 394.38978353 787.25457313 393.5859375 788.3203125 C392.10758482 790.27926039 390.62841308 792.23759042 389.1484375 794.1953125 C387.73225658 796.1264683 386.363081 798.09311688 385.046875 800.09375 C382.82001069 803.39154905 380.41764645 806.4442973 377.875 809.5 C377.21177734 810.31791016 377.21177734 810.31791016 376.53515625 811.15234375 C375.40338842 812.51661977 374.20633588 813.82619238 373 815.125 C372.34 815.125 371.68 815.125 371 815.125 C370.814375 815.805625 370.62875 816.48625 370.4375 817.1875 C368.75828273 820.61894399 366.67736529 822.55157617 363.9375 825.16015625 C361.23200133 827.90383736 358.97330519 830.92459231 356.67578125 834.01171875 C354.91196847 836.23601412 353.10820875 838.22288905 351 840.125 C350.34 840.125 349.68 840.125 349 840.125 C348.731875 840.764375 348.46375 841.40375 348.1875 842.0625 C347 844.125 347 844.125 344 845.125 C343.71125 845.7025 343.4225 846.28 343.125 846.875 C341.60387378 849.91725245 339.51286104 851.86342507 337 854.125 C336.34 854.125 335.68 854.125 335 854.125 C334.76410156 854.70894531 334.52820312 855.29289062 334.28515625 855.89453125 C332.71257456 858.62384476 330.95785439 859.9311087 328.4375 861.8125 C323.97713092 865.25593067 320.06474492 868.94943096 316.203125 873.046875 C313.65602944 875.4494545 310.93437608 877.21765555 308 879.125 C305.90037571 880.69172472 303.81852334 882.26869372 301.75 883.875 C301.1828125 884.31255615 300.615625 884.7501123 300.03125 885.20092773 C296.64924217 887.8178896 293.31437439 890.48509343 290 893.1875 C285.13668736 897.11004069 280.04444798 900.63088782 274.8828125 904.14453125 C273.16885984 905.32200279 271.47036719 906.52340471 269.80859375 907.7734375 C266.31172138 910.38665098 262.39946448 912.37488704 258.55859375 914.43359375 C253.36998614 917.22048779 248.3115543 920.13355595 243.3125 923.25 C239.26739202 925.76865214 235.25789765 928.09408724 230.953125 930.12890625 C228.56405759 931.34733063 226.33406207 932.76254772 224.0625 934.1875 C221.03237838 936.03491152 218.27643576 937.49576659 214.875 938.5 C210.37071986 939.83932578 206.35512803 941.86600295 202.1875 944 C185.44882155 952.53769356 167.65079398 958.79066299 149.8125 964.625 C149.0908667 964.86178467 148.3692334 965.09856934 147.62573242 965.3425293 C134.92683471 969.47721585 122.25378862 972.47189978 109.125 974.90625 C105.22686078 975.63374614 101.49570818 976.52056324 97.71484375 977.71484375 C93.33220919 979.09785562 89.12924276 979.77471164 84.5625 980.1875 C79.95159182 980.63314759 75.45147424 981.21179655 70.90625 982.12109375 C63.95862014 983.4244886 56.98618682 983.74907004 49.9375 984.125 C41.62873711 984.57751961 33.41502799 985.16245762 25.15625 986.171875 C15.94505054 987.26768904 6.82993526 987.43574601 -2.4375 987.375 C-3.24327484 987.3728952 -4.04904968 987.37079041 -4.87924194 987.36862183 C-15.36519742 987.33655945 -25.68739939 987.01641966 -36.09375 985.62890625 C-40.00556857 985.12428165 -43.87494757 984.84156538 -47.8125 984.625 C-62.22452442 983.78658735 -76.49004915 982.67534381 -90.6484375 979.77734375 C-93.43273148 979.2354124 -96.11596574 978.86255185 -98.9375 978.625 C-102.71134259 978.27344432 -106.02123808 977.26134216 -109.56640625 975.94140625 C-112.99161312 974.79234006 -116.49043639 973.96976451 -120 973.125 C-129.03023262 970.93464589 -138.00077345 968.60929702 -146.9375 966.0625 C-148.23240356 965.69463379 -148.23240356 965.69463379 -149.5534668 965.31933594 C-159.51913845 962.45309021 -169.12276127 958.98043129 -178.75 955.125 C-179.85988281 954.68671875 -180.96976563 954.2484375 -182.11328125 953.796875 C-183.72009766 953.15492188 -183.72009766 953.15492188 -185.359375 952.5 C-186.32327148 952.11585938 -187.28716797 951.73171875 -188.28027344 951.3359375 C-191.00631895 950.12218654 -193.45749981 948.68059458 -196 947.125 C-197.90279021 946.38019355 -199.82119557 945.67458186 -201.75 945 C-208.71146359 942.38650803 -215.10603822 939.01109996 -221.6328125 935.46875 C-226.56892732 932.79363708 -231.59435487 930.30918313 -236.64770508 927.86401367 C-240.66078194 925.89453116 -244.29909535 923.62285576 -248 921.125 C-249.54653829 920.32262253 -251.10879904 919.54958449 -252.6875 918.8125 C-258.41557739 915.99960485 -263.6815228 912.64117994 -269 909.125 C-269.88510254 908.54177979 -269.88510254 908.54177979 -270.78808594 907.94677734 C-277.90703682 903.25165099 -284.97449888 898.49480342 -291.9375 893.5703125 C-293.62326667 892.38899874 -295.3390012 891.25055024 -297.0625 890.125 C-300.30641899 887.9163743 -303.36621973 885.53660429 -306.4453125 883.10546875 C-309.25534108 880.9270521 -312.12695673 878.84447047 -315 876.75 C-319.61436638 873.31115662 -323.66820947 869.68233883 -327.57421875 865.4609375 C-329.62869152 863.48255632 -331.63586563 861.88279495 -333.91796875 860.19140625 C-340.05857712 855.48425817 -345.39809228 849.98998318 -350.83007812 844.50073242 C-352.62317363 842.689345 -354.42417766 840.88612419 -356.2265625 839.08398438 C-362.02859166 833.26396963 -367.67589164 827.39038196 -373 821.125 C-374.51712091 819.45495331 -376.03738048 817.7877454 -377.5625 816.125 C-380.79560059 812.54667002 -383.76882347 808.89456624 -386.59765625 804.9921875 C-388.02371902 803.09341869 -389.54560335 801.33489025 -391.125 799.5625 C-393.4506782 796.9011569 -395.13730963 794.18380824 -396.81640625 791.0625 C-398.296101 788.64029341 -400.02072061 786.51353419 -401.8125 784.3125 C-408.64497882 775.91005822 -414.39063496 767.01901821 -419.91723633 757.72070312 C-422.13501522 754.02318976 -424.41440229 750.52127778 -427.07421875 747.125 C-430.15919504 743.10293542 -432.22104185 738.87602459 -434.25 734.25 C-434.9179825 732.75086369 -435.58969195 731.25338089 -436.265625 729.7578125 C-436.55211914 729.10699707 -436.83861328 728.45618164 -437.13378906 727.78564453 C-437.99728066 725.92777103 -437.99728066 725.92777103 -440 724.125 C-440.752169 722.42131666 -441.50027384 720.71546515 -442.20996094 718.99365234 C-443.37584818 716.23601916 -444.75609256 713.59926446 -446.125 710.9375 C-452.70349659 697.91363883 -458.53287471 684.57542551 -463.875 671 C-464.42873291 669.59729858 -464.42873291 669.59729858 -464.99365234 668.16625977 C-467.01609581 662.95006814 -468.79124975 657.72084004 -470.35205078 652.34863281 C-471.16410697 649.56181754 -472.07170937 646.812561 -473 644.0625 C-473.33773438 643.05574219 -473.67546875 642.04898438 -474.0234375 641.01171875 C-474.62909526 639.22139442 -475.23787137 637.43211781 -475.8515625 635.64453125 C-477.48825022 630.84192738 -478.80678779 626.05694378 -480 621.125 C-480.31839844 620.05507813 -480.63679688 618.98515625 -480.96484375 617.8828125 C-482.22203776 613.31896103 -483.04332404 608.74461375 -483.85546875 604.0859375 C-484.43255677 600.87161926 -485.09244532 597.8046914 -486 594.66015625 C-487.13442407 590.64978991 -487.8471708 586.6734156 -488.5 582.5625 C-488.62818115 581.76658447 -488.7563623 580.97066895 -488.88842773 580.15063477 C-489.14523795 578.54480516 -489.39975969 576.93860771 -489.65185547 575.33203125 C-489.94724731 573.459421 -490.25543995 571.58883702 -490.56640625 569.71875 C-491.92810665 561.05533329 -492.60173973 552.3657602 -493.21508789 543.62084961 C-493.61565007 538.119825 -494.20237547 532.72809649 -495.05078125 527.27734375 C-496.33999499 517.92066855 -496.26444811 508.5948108 -496.20581055 499.1640625 C-496.18753086 496.13012243 -496.18530188 493.09648957 -496.18554688 490.0625 C-496.13941576 464.30438384 -496.13941576 464.30438384 -494.0625 452.3125 C-492.71456983 444.34473502 -492.28662733 436.29603701 -491.78540039 428.23706055 C-491.42097103 422.84885475 -490.9417568 418.20457671 -489 413.125 C-488.48325174 410.61160138 -488.00670981 408.08972754 -487.5625 405.5625 C-486.45779521 399.43167025 -485.1817588 393.37111825 -483.7421875 387.30859375 C-482.98687973 384.06872093 -482.30151842 380.81967017 -481.625 377.5625 C-481.08648674 375.08264645 -480.5446188 372.60351982 -480 370.125 C-479.86464844 369.47934082 -479.72929687 368.83368164 -479.58984375 368.16845703 C-473.01373551 337.23556953 -461.10435222 306.60612534 -446.71875 278.5234375 C-444.95444942 275.03493408 -443.34396504 271.50901704 -441.78515625 267.92578125 C-439.44114229 262.54970942 -436.50917073 257.62920603 -433.46875 252.62890625 C-432.22627475 250.5107503 -431.11752161 248.40213587 -430.0625 246.1875 C-427.94218214 241.80491832 -425.29929444 237.79439354 -422.65234375 233.71484375 C-421.37304631 231.70970379 -420.19036845 229.71531619 -419.0625 227.625 C-416.8716183 223.72504876 -414.19595862 220.20947026 -411.5390625 216.6171875 C-408.90709809 213.0308931 -406.37947099 209.37408477 -403.84399414 205.71923828 C-398.46755872 197.9731281 -393.05282522 190.36290468 -387 183.125 C-385.91138672 181.77921875 -385.91138672 181.77921875 -384.80078125 180.40625 C-372.15883838 164.78089447 -372.15883838 164.78089447 -366.375 160.0625 C-363.95390994 158.07374745 -362.17057733 156.12761047 -360.375 153.5625 C-357.41496454 149.4312852 -353.99914929 145.8588399 -350.4375 142.25 C-349.88304199 141.67822021 -349.32858398 141.10644043 -348.75732422 140.51733398 C-345.613026 137.37631987 -343.171974 135.75272975 -339 134.125 C-337.95282727 132.292037 -337.95282727 132.292037 -337 130.125 C-331.86940201 124.40706082 -326.36082882 119.09449407 -320.08984375 114.64453125 C-317.4944704 112.75742801 -315.03737809 110.72987512 -312.5625 108.6875 C-302.75503393 100.62268286 -292.77559453 93.00672684 -281.93359375 86.375 C-279.85275132 85.02980893 -277.90260244 83.57121589 -275.9375 82.0625 C-273.0594719 79.86493591 -270.14920863 77.98630222 -266.96484375 76.24609375 C-264.49771112 74.83840575 -262.13345008 73.29501657 -259.75 71.75 C-255.158585 68.80420843 -250.47478192 66.15000683 -245.6640625 63.58203125 C-243.1585745 62.2117277 -240.73864452 60.7551833 -238.3125 59.25 C-232.0305405 55.43273275 -225.4294108 52.26489548 -218.83447266 49.03271484 C-216.43538792 47.84562447 -214.06388195 46.60677693 -211.6875 45.375 C-207.64761334 43.35838442 -203.54956958 41.80894092 -199.2890625 40.32421875 C-196.85586749 39.4370562 -194.47555028 38.51167283 -192.0859375 37.51953125 C-180.86231252 32.86878958 -169.48405768 28.765063 -158 24.8125 C-157.24855713 24.55210937 -156.49711426 24.29171875 -155.72290039 24.0234375 C-147.59057944 21.21116889 -139.52814526 18.58778775 -131.125 16.67895508 C-129.03072323 16.32434616 -129.03072323 16.32434616 -128 15.125 C-126.66779597 14.81765458 -125.32370603 14.56143401 -123.9765625 14.328125 C-123.12892334 14.17641846 -122.28128418 14.02471191 -121.40795898 13.8684082 C-120.48958252 13.7055835 -119.57120605 13.54275879 -118.625 13.375 C-108.25659108 11.47806768 -98.15501977 8.92674392 -88 6.125 C-85.25196787 5.37836614 -82.62802327 4.91993097 -79.79248047 4.66015625 C-78.96996796 4.58337646 -78.14745544 4.50659668 -77.30001831 4.42749023 C-76.41468414 4.34829346 -75.52934998 4.26909668 -74.6171875 4.1875 C-73.22477341 4.06000366 -73.22477341 4.06000366 -71.80422974 3.92993164 C-69.83235528 3.75023718 -67.86033493 3.57213755 -65.88818359 3.39550781 C-62.9341251 3.13030794 -59.98072834 2.85852712 -57.02734375 2.5859375 C-37.97825053 0.84736005 -19.12953887 -0.05368987 0 0 Z M-66.0625 7.4375 C-66.89027954 7.54893341 -67.71805908 7.66036682 -68.57092285 7.775177 C-79.68295835 9.27512258 -90.69745624 10.91349435 -101.60400391 13.55517578 C-104.46221776 14.23492625 -107.32978298 14.86541523 -110.19921875 15.49609375 C-123.66157665 18.48017586 -136.89246728 21.84209135 -150 26.125 C-151.59787354 26.64271973 -151.59787354 26.64271973 -153.22802734 27.17089844 C-176.47405743 34.76370781 -199.23078222 43.64068991 -220.90576172 55.03515625 C-223.31199905 56.28736463 -225.73546951 57.50266143 -228.16015625 58.71875 C-249.46360045 69.49537287 -269.79815008 81.93370712 -289 96.125 C-289.56348145 96.53830566 -290.12696289 96.95161133 -290.70751953 97.37744141 C-305.81640404 108.47408269 -320.15835405 120.49260861 -334 133.125 C-334.89847656 133.93066406 -335.79695312 134.73632812 -336.72265625 135.56640625 C-342.73855755 140.99934 -348.56951597 146.5914459 -354.3125 152.3125 C-354.97008301 152.96549072 -355.62766602 153.61848145 -356.30517578 154.29125977 C-360.73915507 158.73923874 -364.90718922 163.36317794 -369 168.125 C-369.9496695 169.20777852 -370.90014351 170.28985216 -371.8515625 171.37109375 C-379.07390637 179.6520622 -385.8155441 188.23479291 -392.41064453 197.02099609 C-393.9230489 199.02313141 -395.45549334 201.00779955 -396.99609375 202.98828125 C-415.15614303 226.48828203 -429.63953408 252.67402277 -443 279.125 C-443.43699219 279.98818848 -443.87398438 280.85137695 -444.32421875 281.74072266 C-460.35030376 313.66345123 -471.37698127 347.54592154 -480 382.125 C-480.24878906 383.11790039 -480.49757813 384.11080078 -480.75390625 385.13378906 C-494.11022015 439.45582575 -497.39183935 500.8972277 -489 556.125 C-488.88358154 556.89785339 -488.76716309 557.67070679 -488.6472168 558.46697998 C-483.7203309 590.92818754 -476.5576794 622.03781672 -466 653.125 C-465.43708252 654.7965918 -465.43708252 654.7965918 -464.86279297 656.50195312 C-446.94821785 709.33504106 -419.19398453 760.49933181 -383 803.125 C-382.10618689 804.19221955 -381.21298885 805.25995443 -380.3203125 806.328125 C-374.68355751 813.05453482 -368.91743337 819.64304147 -363 826.125 C-362.17113281 827.04667969 -361.34226562 827.96835938 -360.48828125 828.91796875 C-351.46435193 838.89039867 -342.18346329 848.79322855 -331.91015625 857.49609375 C-329.6219606 859.44737716 -327.4090094 861.47317687 -325.1875 863.5 C-278.28209252 905.71486674 -221.34167036 937.27918595 -162 958.125 C-160.41665434 958.69397613 -158.83331969 959.26298286 -157.25 959.83203125 C-145.1245459 964.1061955 -132.68101028 967.21633153 -120.21386719 970.31982422 C-117.37964798 971.02988613 -114.55261492 971.76219029 -111.7265625 972.50390625 C-96.67118053 976.37605581 -81.36134425 978.74929454 -65.9755249 980.85357666 C-64.12302606 981.10809708 -62.27166967 981.37089395 -60.42041016 981.63427734 C-24.10905589 986.61940423 14.59283443 986.12633027 51 982.125 C51.93714844 982.02316406 52.87429688 981.92132812 53.83984375 981.81640625 C60.25524231 981.08758818 66.627475 980.1606958 73 979.125 C74.07572266 978.95097656 75.15144531 978.77695313 76.25976562 978.59765625 C103.96588895 974.04021112 130.45453618 967.14024252 157 958.125 C158.11439453 957.74972168 159.22878906 957.37444336 160.37695312 956.98779297 C213.21004106 939.07321785 264.37433181 911.31898453 307 875.125 C308.06721955 874.23118689 309.13495443 873.33798885 310.203125 872.4453125 C316.92953482 866.80855751 323.51804147 861.04243337 330 855.125 C330.92167969 854.29613281 331.84335938 853.46726562 332.79296875 852.61328125 C342.76790371 843.58708515 352.68051356 834.30532811 361.37890625 824.0234375 C363.2809365 821.79599967 365.2660772 819.65477029 367.25 817.5 C372.28082745 811.91773278 376.87388348 806.04197545 381.46386719 800.09814453 C383.06611773 798.04007256 384.69085589 796.00142918 386.3203125 793.96484375 C425.34198054 744.95640493 451.92610338 687.7990539 470 628.125 C470.31565918 627.08649902 470.63131836 626.04799805 470.95654297 624.97802734 C479.55025061 596.22374769 484.45201454 566.50680858 486.72216797 536.61645508 C486.87943828 534.64007302 487.04720787 532.66427393 487.2492981 530.69197083 C487.93922824 523.82980411 488.14623397 517.05441623 488.1328125 510.16015625 C488.13376923 509.04676376 488.13472595 507.93337128 488.13571167 506.78623962 C488.13638823 504.44074446 488.13457072 502.09524736 488.13037109 499.74975586 C488.12506153 496.22830807 488.1303103 492.70699052 488.13671875 489.18554688 C488.14514497 469.46836986 487.45902023 450.15445404 484.6875 430.625 C484.57606659 429.82250824 484.46463318 429.02001648 484.349823 428.19320679 C482.78424637 416.9312456 481.08858447 405.72962416 478.56982422 394.63525391 C477.90629324 391.71219242 477.2688568 388.78378059 476.62890625 385.85546875 C473.65235969 372.41826252 470.28121455 359.20560285 466 346.125 C465.64953613 345.04911621 465.29907227 343.97323242 464.93798828 342.86474609 C447.88109607 290.94272817 422.87797812 242.79854882 390 199.125 C389.58540527 198.57005859 389.17081055 198.01511719 388.74365234 197.44335938 C379.50289838 185.09305325 369.38798661 173.51943514 359 162.125 C358.17242188 161.20460938 357.34484375 160.28421875 356.4921875 159.3359375 C347.46626711 149.36269019 338.18497712 139.45805387 327.91015625 130.75390625 C325.6219606 128.80262284 323.4090094 126.77682313 321.1875 124.75 C300.84696205 106.42491169 278.34153626 90.37387131 255 76.125 C254.32211426 75.70686035 253.64422852 75.2887207 252.94580078 74.85791016 C202.55651608 43.87118101 145.8619672 22.50723417 87.76806641 11.64794922 C85.41724006 11.20382591 83.07362298 10.73640393 80.73046875 10.25390625 C67.52260226 7.67121301 54.10169641 6.65872507 40.71118164 5.46630859 C38.72371957 5.28352641 36.73651574 5.09471252 34.75372314 4.86679077 C28.12512669 4.12416896 21.58061526 3.97953821 14.9140625 3.9921875 C13.77705902 3.99123077 12.64005554 3.99027405 11.46859741 3.98928833 C9.07004745 3.988611 6.67149561 3.99043395 4.27294922 3.99462891 C0.67020353 3.99993344 -2.93241464 3.99469446 -6.53515625 3.98828125 C-26.57598626 3.97990048 -46.20208262 4.71041675 -66.0625 7.4375 Z " fill="#FFFBF4" transform="translate(752,255.875)"/>
<path d="M0 0 C55.77 0 111.54 0 169 0 C169 18.48 169 36.96 169 56 C113.23 56 57.46 56 0 56 C0 37.52 0 19.04 0 0 Z " fill="#FFA500" transform="translate(669,747)"/>
<path d="M0 0 C9.24 0 18.48 0 28 0 C27.9175 2.51625 27.835 5.0325 27.75 7.625 C27.81635661 10.55516803 28.03710064 13.21929063 29 16 C31.79392455 18.36131688 34.36329927 19.32422544 37.78125 20.59375 C45.0079161 23.75103131 50.1764906 31.02537809 53.29296875 38.140625 C55.78536119 44.69520402 56 48.59880479 56 56 C46.76 56 37.52 56 28 56 C27.01 53.03 26.02 50.06 25 47 C21.44683976 43.33222169 18.08205321 43.06980988 13.125 42.75 C9.09933263 42.81746929 6.38696926 43.71576492 3 46 C0.8020253 48.71083547 0.07602123 50.48957172 -0.4375 53.9375 C0.14094038 57.98658263 1.41817451 59.80879955 4 63 C6.74980609 64.9108574 9.67958588 66.35154751 12.6875 67.8125 C14.39207529 68.67548857 16.0964991 69.53877642 17.80078125 70.40234375 C18.66396973 70.83272949 19.5271582 71.26311523 20.41650391 71.70654297 C24.42793965 73.71491441 28.40331304 75.78941496 32.375 77.875 C33.06940186 78.23182861 33.76380371 78.58865723 34.47924805 78.95629883 C42.55214074 83.17624261 47.17263011 88.32425309 52 96 C52.44085937 96.68964844 52.88171875 97.37929688 53.3359375 98.08984375 C58.17370395 107.02770303 56.99794579 118.52212865 54.375 128 C51.0193177 137.50385546 44.49984187 145.57317824 35.48828125 150.32421875 C33.35281363 151.27964775 31.17910591 152.14878676 29 153 C28.67 158.28 28.34 163.56 28 169 C18.76 169 9.52 169 0 169 C0 163.72 0 158.44 0 153 C-1.65 152.67 -3.3 152.34 -5 152 C-8.17749323 150.25376024 -11.05896199 148.11566678 -14 146 C-15.03125 145.319375 -16.0625 144.63875 -17.125 143.9375 C-22.69978679 139.17472698 -27.19764392 130.25246534 -28 123 C-28 119.7 -28 116.4 -28 113 C-19.09 113 -10.18 113 -1 113 C-0.01 115.64 0.98 118.28 2 121 C4.49185887 124.13491922 6.12922665 125.27293166 10 126 C11.6647181 126.09070579 13.33282033 126.13008286 15 126.125 C15.845625 126.12757813 16.69125 126.13015625 17.5625 126.1328125 C19.88742812 126.00613372 21.81328276 125.8000185 24 125 C25.24714403 122.59047977 25.24714403 122.59047977 26 120 C26.33 119.34 26.66 118.68 27 118 C27.25190882 113.54961093 27.33264191 109.88773652 25 106 C23.353428 105.28514135 21.68133845 104.62874736 20 104 C15.7550657 102.03890917 11.55181252 99.99574796 7.35473633 97.93481445 C6.00539913 97.27587333 4.65288505 96.62339384 3.29711914 95.9777832 C-8.17344272 90.51087278 -20.09066754 83.81657346 -25.484375 71.65234375 C-29.84192482 58.86212806 -30.78566517 47.91422846 -24.74609375 35.40234375 C-19.76342413 26.40095423 -12.48082487 20.05786784 -3 16 C-2.01 16 -1.02 16 0 16 C0 10.72 0 5.44 0 0 Z " fill="#011F3E" transform="translate(740,379)"/>
<path d="M0 0 C-2.09501745 28.37134654 -17.63083796 55.15377991 -39 73.671875 C-64.48725302 94.68485143 -92.89851082 99.72192255 -125 99 C-124.58747245 91.54160866 -123.42591013 84.87457902 -121 77.8125 C-120.53750854 76.45511719 -120.53750854 76.45511719 -120.06567383 75.0703125 C-109.37878513 44.98044767 -86.40172338 22.49988593 -57.90722656 8.87792969 C-53.35566411 6.78276602 -48.85407261 5.23214358 -44 4 C-43.31695801 3.82098145 -42.63391602 3.64196289 -41.93017578 3.45751953 C-27.91794324 -0.11410782 -14.40412569 -0.48486182 0 0 Z " fill="#FDA300" transform="translate(894,619)"/>
<path d="M0 0 C15.2439436 -0.51313119 29.19776778 0.26475492 44 4 C44.95648437 4.21527344 45.91296875 4.43054688 46.8984375 4.65234375 C65.05155458 9.26600972 80.76734338 21.2703391 94 34 C94.63421875 34.55945313 95.2684375 35.11890625 95.921875 35.6953125 C111.06473353 49.46810287 123.68512308 73.6777431 125.15673828 94.18408203 C125.15956105 95.79023551 125.08945602 97.39633713 125 99 C95.87619075 99.61449284 95.87619075 99.61449284 84 96 C82.97003906 95.73316406 81.94007813 95.46632813 80.87890625 95.19140625 C62.0868951 90.01612778 47.09194733 80.2866932 33 67 C31.78183594 65.91332031 31.78183594 65.91332031 30.5390625 64.8046875 C18.13379054 53.26034924 10.74229137 38.71314687 5 23 C4.66355469 22.15050781 4.32710937 21.30101562 3.98046875 20.42578125 C1.51559139 13.85682236 0.83809322 6.93152392 0 0 Z " fill="#FDA400" transform="translate(613,619)"/>
<path d="M0 0 C2.37658887 3.07420446 4.26494958 6.47548182 6.25 9.8125 C7.10078125 11.18631836 7.10078125 11.18631836 7.96875 12.58789062 C8.76539063 13.91530273 8.76539063 13.91530273 9.578125 15.26953125 C10.06700195 16.08010986 10.55587891 16.89068848 11.05957031 17.72583008 C12 20 12 20 11.76074219 22.19311523 C10.70057977 24.71117109 9.21140113 25.66823391 7 27.25 C6.18273437 27.86359375 5.36546875 28.4771875 4.5234375 29.109375 C3.69070313 29.73328125 2.85796875 30.3571875 2 31 C-21.05833989 48.76225476 -31.45738913 78.84382449 -35.22216797 106.76196289 C-37.49080297 126.61527683 -38.62823108 148.52557824 -26.17578125 165.484375 C-25.25345703 166.60585937 -25.25345703 166.60585937 -24.3125 167.75 C-21 171.7826087 -21 171.7826087 -21 174 C-20.42765625 174.26554687 -19.8553125 174.53109375 -19.265625 174.8046875 C-16.8923988 176.05676891 -14.87786714 177.4936352 -12.75 179.125 C-12.04359375 179.66382813 -11.3371875 180.20265625 -10.609375 180.7578125 C-10.07828125 181.16773438 -9.5471875 181.57765625 -9 182 C-10.27108636 185.4160446 -11.73394747 188.35706208 -13.75 191.390625 C-14.2759375 192.18210937 -14.801875 192.97359375 -15.34375 193.7890625 C-15.8903125 194.60117188 -16.436875 195.41328125 -17 196.25 C-17.5465625 197.07757812 -18.093125 197.90515625 -18.65625 198.7578125 C-19.1821875 199.54414062 -19.708125 200.33046875 -20.25 201.140625 C-20.96929688 202.21618652 -20.96929688 202.21618652 -21.703125 203.31347656 C-23 205 -23 205 -25 206 C-44.53033988 193.7287245 -58.41415028 174.99702965 -63.82006836 152.44506836 C-68.30552262 130.18543283 -65.55185347 103.89897756 -60 82 C-59.7009375 80.75734375 -59.401875 79.5146875 -59.09375 78.234375 C-57.06067681 70.13487373 -54.51209464 62.57356722 -51 55 C-50.49726562 53.90171875 -49.99453125 52.8034375 -49.4765625 51.671875 C-43.5106866 39.17994705 -17.44141417 -5.81380472 0 0 Z " fill="#02203E" transform="translate(649,878)"/>
<path d="M0 0 C9.57 0 19.14 0 29 0 C29 9.57 29 19.14 29 29 C38.57 29 48.14 29 58 29 C58 38.57 58 48.14 58 58 C48.43 58 38.86 58 29 58 C29 67.24 29 76.48 29 86 C19.43 86 9.86 86 0 86 C0 76.76 0 67.52 0 58 C-9.24 58 -18.48 58 -28 58 C-28 48.43 -28 38.86 -28 29 C-18.76 29 -9.52 29 0 29 C0 19.43 0 9.86 0 0 Z " fill="#08233C" transform="translate(1008,491)"/>
<path d="M0 0 C9.57 0 19.14 0 29 0 C29 9.24 29 18.48 29 28 C38.24 28 47.48 28 57 28 C57 37.57 57 47.14 57 57 C47.76 57 38.52 57 29 57 C29 66.24 29 75.48 29 85 C19.43 85 9.86 85 0 85 C0 75.76 0 66.52 0 57 C-9.24 57 -18.48 57 -28 57 C-28 47.43 -28 37.86 -28 28 C-18.76 28 -9.52 28 0 28 C0 18.76 0 9.52 0 0 Z " fill="#04213D" transform="translate(456,407)"/>
<path d="M0 0 C9.24 0 18.48 0 28 0 C28 9.24 28 18.48 28 28 C37.57 28 47.14 28 57 28 C57 37.57 57 47.14 57 57 C47.43 57 37.86 57 28 57 C28 66.24 28 75.48 28 85 C18.76 85 9.52 85 0 85 C0 75.76 0 66.52 0 57 C-9.24 57 -18.48 57 -28 57 C-28 47.43 -28 37.86 -28 28 C-18.76 28 -9.52 28 0 28 C0 18.76 0 9.52 0 0 Z " fill="#02203E" transform="translate(1051,775)"/>
<path d="M0 0 C9.24 0 18.48 0 28 0 C28 9.57 28 19.14 28 29 C37.24 29 46.48 29 56 29 C56 38.24 56 47.48 56 57 C46.76 57 37.52 57 28 57 C28 66.24 28 75.48 28 85 C18.76 85 9.52 85 0 85 C0 75.76 0 66.52 0 57 C-9.57 57 -19.14 57 -29 57 C-29 47.76 -29 38.52 -29 29 C-19.43 29 -9.86 29 0 29 C0 19.43 0 9.86 0 0 Z " fill="#011F3E" transform="translate(400,789)"/>
<path d="M0 0 C9.57 0 19.14 0 29 0 C29 9.57 29 19.14 29 29 C19.43 29 9.86 29 0 29 C0 19.43 0 9.86 0 0 Z " fill="#0B253C" transform="translate(654,1072)"/>
<path d="M0 0 C9.57 0 19.14 0 29 0 C29 9.57 29 19.14 29 29 C19.43 29 9.86 29 0 29 C0 19.43 0 9.86 0 0 Z " fill="#0C253B" transform="translate(810,449)"/>
<path d="M0 0 C9.24 0 18.48 0 28 0 C28 9.24 28 18.48 28 28 C18.76 28 9.52 28 0 28 C0 18.76 0 9.52 0 0 Z " fill="#02203E" transform="translate(669,450)"/>
<path d="M0 0 C-0.33 0.66 -0.66 1.32 -1 2 C-13.67810483 5.70181305 -27.7543875 5.14637831 -40.8125 5.0625 C-42.19856606 5.05746684 -43.58463393 5.0529072 -44.97070312 5.04882812 C-48.31384975 5.03717953 -51.65690011 5.02082429 -55 5 C-55 4.67 -55 4.34 -55 4 C-54.23671387 3.95512451 -53.47342773 3.91024902 -52.68701172 3.86401367 C-38.6083083 3.01667453 -24.6461362 2.09582866 -10.70458984 -0.12231445 C-9.87266113 -0.25081787 -9.04073242 -0.37932129 -8.18359375 -0.51171875 C-7.46743896 -0.62990967 -6.75128418 -0.74810059 -6.01342773 -0.86987305 C-3.80005217 -1.01292254 -2.11115054 -0.64422555 0 0 Z " fill="#FFFAF2" transform="translate(829,1235)"/>
<path d="M0 0 C-0.33 0.66 -0.66 1.32 -1 2 C-4.47782583 3.15927528 -7.18803257 3.11313066 -10.85546875 3.09765625 C-11.84792351 3.09553383 -11.84792351 3.09553383 -12.86042786 3.09336853 C-14.96949828 3.08777996 -17.07846177 3.07522965 -19.1875 3.0625 C-20.61913909 3.05748352 -22.05077985 3.05292087 -23.48242188 3.04882812 C-26.98831588 3.0378143 -30.4941475 3.02055755 -34 3 C-34 2.67 -34 2.34 -34 2 C-29.96166219 1.71293789 -25.92316904 1.42817949 -21.88452148 1.14550781 C-20.51208158 1.04912815 -19.13968488 0.9521311 -17.76733398 0.85449219 C-15.78901598 0.71385007 -13.8105249 0.57564918 -11.83203125 0.4375 C-10.64327393 0.35371094 -9.4545166 0.26992187 -8.22973633 0.18359375 C-5.47573649 0.02704315 -2.75717155 -0.0363683 0 0 Z " fill="#FFEFD3" transform="translate(808,1237)"/>
<path d="M0 0 C0.33 0 0.66 0 1 0 C1.28571429 8.57142857 1.28571429 8.57142857 -1 12 C-1.33 12 -1.66 12 -2 12 C-2.05422947 10.5629191 -2.09289723 9.12524538 -2.125 7.6875 C-2.14820313 6.88699219 -2.17140625 6.08648438 -2.1953125 5.26171875 C-2 3 -2 3 0 0 Z " fill="#FFF3DE" transform="translate(1240,786)"/>
<path d="M0 0 C1.125 1.5625 1.125 1.5625 2 4 C1.3125 7.6875 1.3125 7.6875 0 11 C-0.99 11.33 -1.98 11.66 -3 12 C-2.68950274 10.56206608 -2.3765224 9.1246682 -2.0625 7.6875 C-1.88847656 6.88699219 -1.71445313 6.08648438 -1.53515625 5.26171875 C-1 3 -1 3 0 0 Z " fill="#FFF0D5" transform="translate(1216,900)"/>
<path d="M0 0 C0.99 0 1.98 0 3 0 C3.125 3.375 3.125 3.375 3 7 C2.34 7.66 1.68 8.32 1 9 C0.67 6.03 0.34 3.06 0 0 Z " fill="#FFF4E0" transform="translate(1235,679)"/>
</svg>
